<?xml version="1.0" encoding="utf-8"?>
<!-- Generator: Adobe Illustrator 23.0.3, SVG Export Plug-In . SVG Version: 6.00 Build 0)  -->
<svg version="1.1" id="Layer_1" xmlns="http://www.w3.org/2000/svg" xmlns:xlink="http://www.w3.org/1999/xlink" x="0px" y="0px"
	 viewBox="0 0 580 140" style="enable-background:new 0 0 580 140;" xml:space="preserve">
<style type="text/css">
	.st0{enable-background:new    ;}
	.st1{fill:#020203;}
</style>
<g class="st0">
	<path class="st1" d="M12.7,81.4v-9.8l56.9-24V58L24.5,76.5l45.1,18.7v10.5L12.7,81.4z"/>
</g>
<g class="st0">
	<path class="st1" d="M141,84.5l19.7,34.4h-18.4l-27.8-48.1l14.3,0.1c4.3,0,8-1.6,11.2-4.7c3.2-3.1,4.8-7,4.8-11.4
		c0-4.3-1.6-8-4.8-11.2c-3.1-3.1-6.8-4.7-11.2-4.7h-32l-1.8-1.8L86.6,23h42.1c8.8,0,16.3,3.1,22.6,9.4c6.2,6.4,9.4,13.8,9.4,22.6
		c0,6.7-1.8,12.7-5.6,18.1C151.3,78.4,146.6,82.2,141,84.5z"/>
</g>
<g class="st0">
	<path class="st1" d="M214.1,84.5l19.7,34.4h-18.4l-27.8-48.1l14.3,0.1c4.3,0,8-1.6,11.2-4.7c3.2-3.1,4.8-7,4.8-11.4
		c0-4.3-1.6-8-4.8-11.2c-3.1-3.1-6.8-4.7-11.2-4.7h-32l-1.8-1.8L159.7,23h42.1c8.8,0,16.3,3.1,22.6,9.4c6.2,6.4,9.4,13.8,9.4,22.6
		c0,6.7-1.8,12.7-5.6,18.1C224.4,78.4,219.7,82.2,214.1,84.5z"/>
</g>
<g class="st0">
	<path class="st1" d="M282.8,83.1l-9,18L234.7,23h17.9L282.8,83.1z M391.1,23l-48,96l-30.2-60.1l9-18l21.2,42.2L373.2,23H391.1z"/>
</g>
<g class="st0">
	<path class="st1" d="M476.6,71c0,6.6-1.2,12.7-3.7,18.5c-2.6,5.9-6,10.9-10.3,15.4c-4.3,4.3-9.5,7.8-15.4,10.3
		c-5.8,2.5-12,3.8-18.6,3.8h-31.9l16-16.1h16c4.4,0,8.6-0.8,12.5-2.4c3.8-1.7,7.3-4,10.2-7c2.9-3,5.2-6.4,6.8-10.2
		c1.7-4,2.5-8,2.5-12.4s-0.8-8.4-2.5-12.4c-1.7-3.8-4-7.2-7-10.2c-2.9-2.9-6.4-5.3-10.2-7c-3.8-1.6-8-2.4-12.4-2.4h-16l-16-16.1
		h31.9c6.6,0,12.7,1.3,18.6,3.8c5.8,2.5,10.9,6,15.2,10.3c4.4,4.4,7.8,9.5,10.4,15.4C475.4,58.2,476.6,64.4,476.6,71z"/>
</g>
<g class="st0">
	<path class="st1" d="M565.8,81.4l-56.9,24.3V95.2l45.1-18.7L508.9,58V47.5l56.9,24V81.4z"/>
</g>
</svg>
